<?xml version="1.0" encoding="UTF-8" standalone="no"?>
<!DOCTYPE svg PUBLIC "-//W3C//DTD SVG 1.1//EN" "http://www.w3.org/Graphics/SVG/1.1/DTD/svg11.dtd">
<svg width="1400px" height="1000px" version="1.1" xmlns="http://www.w3.org/2000/svg" xmlns:xlink="http://www.w3.org/1999/xlink" xml:space="preserve" xmlns:serif="http://www.serif.com/" style="fill-rule:evenodd;clip-rule:evenodd;">
    <rect x="0" y="0" width="1400" height="1000" style="fill:#090d12;"/>
    <text x="627.554px" y="30px" style="font-family:'Menlo-Bold', 'Menlo', monospace;font-weight:700;font-size:20px;fill:#b3f9f5;">CAROL v0.0.6</text>
    <text x="524.674px" y="50px" style="font-family:'Menlo-Regular', 'Menlo', monospace;font-size:11px;fill:#699daa;">Cognitive Ampliﬁer Role Orchestration with LLM agents</text>
    <g>
        <g>
            <path d="M850,95.556L850,184.444C850,187.511 847.76,190 845,190L555,190C552.24,190 550,187.511 550,184.444L550,95.556C550,92.489 552.24,90 555,90L845,90C847.76,90 850,92.489 850,95.556Z" style="fill:#0d141c;stroke:#fcba03;stroke-width:2.11px;"/>
            <g>
                <text x="641.715px" y="125.793px" style="font-family:'Menlo-Bold', 'Menlo', monospace;font-weight:700;font-size:16px;fill:#fcba03;">BRAINSTORMER</text>
                <text x="633.784px" y="143.793px" style="font-family:'Menlo-Regular', 'Menlo', monospace;font-size:10px;fill:#699daa;">Pre-ﬂight Shadow Agent</text>
                <text x="607.413px" y="163.793px" style="font-family:'Menlo-Regular', 'Menlo', monospace;font-size:11px;fill:#c5f0e9;">Research • Ideate • Scaffold</text>
            </g>
        </g>
    </g>
    <g>
        <path d="M550,255L550,385C550,387.76 547.76,390 545,390L155,390C152.24,390 150,387.76 150,385L150,255C150,252.24 152.24,250 155,250L545,250C547.76,250 550,252.24 550,255Z" style="fill:#0d141c;stroke:#b3f9f5;stroke-width:2px;"/>
        <path d="M1250,255L1250,385C1250,387.76 1247.76,390 1245,390L855,390C852.24,390 850,387.76 850,385L850,255C850,252.24 852.24,250 855,250L1245,250C1247.76,250 1250,252.24 1250,255Z" style="fill:#0d141c;stroke:#b3f9f5;stroke-width:2px;"/>
    </g>
    <g>
        <text x="301.234px" y="285px" style="font-family:'Menlo-Bold', 'Menlo', monospace;font-weight:700;font-size:18px;fill:#b3f9f5;">COUNSELOR</text>
        <text x="250.823px" y="310px" style="font-family:'Menlo-Regular', 'Menlo', monospace;font-size:10px;fill:#699daa;">Domain Speciﬁc Strategic Analysis</text>
        <text x="244.039px" y="335px" style="font-family:'Menlo-Regular', 'Menlo', monospace;font-size:11px;fill:#8cc9d9;">- Write SPEC.md, PLAN.md, ARCHITECTURE.md</text>
        <text x="250.662px" y="355px" style="font-family:'Menlo-Regular', 'Menlo', monospace;font-size:11px;fill:#8cc9d9;">- Plan features, ask questions</text>
        <text x="253.973px" y="375px" style="font-family:'Menlo-Regular', 'Menlo', monospace;font-size:11px;fill:#8cc9d9;">- Handoff to SURGEON for ﬁxes</text>
        <text x="1012.071px" y="285px" style="font-family:'Menlo-Bold', 'Menlo', monospace;font-weight:700;font-size:18px;fill:#b3f9f5;">SURGEON</text>
        <text x="947.778px" y="310px" style="font-family:'Menlo-Regular', 'Menlo', monospace;font-size:10px;fill:#699daa;">Surgical Precision Problem Solving</text>
        <text x="950.662px" y="335px" style="font-family:'Menlo-Regular', 'Menlo', monospace;font-size:11px;fill:#8cc9d9;">- Fix bugs, implement features</text>
        <text x="944.039px" y="355px" style="font-family:'Menlo-Regular', 'Menlo', monospace;font-size:11px;fill:#8cc9d9;">- Surgical ﬁxes, minimal changes</text>
        <text x="973.841px" y="375px" style="font-family:'Menlo-Regular', 'Menlo', monospace;font-size:11px;fill:#8cc9d9;">- Handle complex issues</text>
    </g>
    <g>
        <path d="M200,483L200,557C200,558.656 198.656,560 197,560L83,560C81.344,560 80,558.656 80,557L80,483C80,481.344 81.344,480 83,480L197,480C198.656,480 200,481.344 200,483Z" style="fill:#112130;stroke:#67dfef;stroke-width:1.5px;"/>
        <path d="M340,483L340,557C340,558.656 338.656,560 337,560L223,560C221.344,560 220,558.656 220,557L220,483C220,481.344 221.344,480 223,480L337,480C338.656,480 340,481.344 340,483Z" style="fill:#112130;stroke:#67dfef;stroke-width:1.5px;"/>
        <path d="M480,483L480,557C480,558.656 478.656,560 477,560L363,560C361.344,560 360,558.656 360,557L360,483C360,481.344 361.344,480 363,480L477,480C478.656,480 480,481.344 480,483Z" style="fill:#112130;stroke:#67dfef;stroke-width:1.5px;"/>
        <path d="M620,483L620,557C620,558.656 618.656,560 617,560L503,560C501.344,560 500,558.656 500,557L500,483C500,481.344 501.344,480 503,480L617,480C618.656,480 620,481.344 620,483Z" style="fill:#112130;stroke:#67dfef;stroke-width:1.5px;"/>
        <path d="M900,483L900,557C900,558.656 898.656,560 897,560L783,560C781.344,560 780,558.656 780,557L780,483C780,481.344 781.344,480 783,480L897,480C898.656,480 900,481.344 900,483Z" style="fill:#112130;stroke:#67dfef;stroke-width:1.5px;"/>
        <path d="M1040,483L1040,557C1040,558.656 1038.656,560 1037,560L923,560C921.344,560 920,558.656 920,557L920,483C920,481.344 921.344,480 923,480L1037,480C1038.656,480 1040,481.344 1040,483Z" style="fill:#112130;stroke:#67dfef;stroke-width:1.5px;"/>
        <path d="M1180,483L1180,557C1180,558.656 1178.656,560 1177,560L1063,560C1061.344,560 1060,558.656 1060,557L1060,483C1060,481.344 1061.344,480 1063,480L1177,480C1178.656,480 1180,481.344 1180,483Z" style="fill:#112130;stroke:#67dfef;stroke-width:1.5px;"/>
        <path d="M1320,483L1320,557C1320,558.656 1318.656,560 1317,560L1203,560C1201.344,560 1200,558.656 1200,557L1200,483C1200,481.344 1201.344,480 1203,480L1317,480C1318.656,480 1320,481.344 1320,483Z" style="fill:#112130;stroke:#67dfef;stroke-width:1.5px;"/>
    </g>
    <g>
        <text x="112.617px" y="510px" style="font-family:'Menlo-Regular', 'Menlo', monospace;font-size:10px;fill:#b3f9f5;">Pathﬁnder</text>
        <text x="118.355px" y="519.758px" style="font-family:'Menlo-Regular', 'Menlo', monospace;font-size:9px;fill:#4a9fab;">patterns</text>
        <text x="107.511px" y="545px" style="font-family:'Menlo-Regular', 'Menlo', monospace;font-size:9px;fill:#519299;">ALWAYS FIRST</text>
        <text x="261.929px" y="510px" style="font-family:'Menlo-Regular', 'Menlo', monospace;font-size:10px;fill:#b3f9f5;">Oracle</text>
        <text x="258.48px" y="520.031px" style="font-family:'Menlo-Regular', 'Menlo', monospace;font-size:9px;fill:#4a9fab;">analysis</text>
        <text x="395.627px" y="510px" style="font-family:'Menlo-Regular', 'Menlo', monospace;font-size:10px;fill:#b3f9f5;">Engineer</text>
        <text x="398.278px" y="520.903px" style="font-family:'Menlo-Regular', 'Menlo', monospace;font-size:9px;fill:#4a9fab;">scaffold</text>
        <text x="539.028px" y="510px" style="font-family:'Menlo-Regular', 'Menlo', monospace;font-size:10px;fill:#b3f9f5;">Auditor</text>
        <text x="538.355px" y="520.903px" style="font-family:'Menlo-Regular', 'Menlo', monospace;font-size:9px;fill:#4a9fab;">validate</text>
        <text x="812.617px" y="510px" style="font-family:'Menlo-Regular', 'Menlo', monospace;font-size:10px;fill:#b3f9f5;">Pathﬁnder</text>
        <text x="818.355px" y="519.758px" style="font-family:'Menlo-Regular', 'Menlo', monospace;font-size:9px;fill:#4a9fab;">patterns</text>
        <text x="807.511px" y="545px" style="font-family:'Menlo-Regular', 'Menlo', monospace;font-size:9px;fill:#519299;">ALWAYS FIRST</text>
        <text x="961.929px" y="510px" style="font-family:'Menlo-Regular', 'Menlo', monospace;font-size:10px;fill:#b3f9f5;">Oracle</text>
        <text x="966.603px" y="519.987px" style="font-family:'Menlo-Regular', 'Menlo', monospace;font-size:9px;fill:#4a9fab;">debug</text>
        <text x="1093.311px" y="510px" style="font-family:'Menlo-Regular', 'Menlo', monospace;font-size:10px;fill:#b3f9f5;">Machinist</text>
        <text x="1103.727px" y="520.031px" style="font-family:'Menlo-Regular', 'Menlo', monospace;font-size:9px;fill:#4a9fab;">polish</text>
        <text x="1232.827px" y="510px" style="font-family:'Menlo-Regular', 'Menlo', monospace;font-size:10px;fill:#b3f9f5;">Librarian</text>
        <text x="1237.931px" y="520.89px" style="font-family:'Menlo-Regular', 'Menlo', monospace;font-size:9px;fill:#4a9fab;">research</text>
    </g>
    <g>
        <g>
            <path d="M850,835L850,925C850,927.76 847.76,930 845,930L555,930C552.24,930 550,927.76 550,925L550,835C550,832.24 552.24,830 555,830L845,830C847.76,830 850,832.24 850,835Z" style="fill:#2c4144;stroke:#00c8d8;stroke-width:2px;"/>
            <g>
                <text x="637.387px" y="865px" style="font-family:'Menlo-Bold', 'Menlo', monospace;font-weight:700;font-size:16px;fill:#00c8d8;">SPRINT-LOG.md</text>
                <text x="620.529px" y="890px" style="font-family:'Menlo-Regular', 'Menlo', monospace;font-size:11px;fill:#bafffd;">Long-term context memory</text>
                <text x="630.764px" y="910px" style="font-family:'Menlo-Regular', 'Menlo', monospace;font-size:10px;fill:#8cc9d9;">Written on &quot;log sprint&quot;</text>
            </g>
        </g>
        <g>
            <path d="M500,95L500,185C500,187.76 497.76,190 495,190L205,190C202.24,190 200,187.76 200,185L200,95C200,92.24 202.24,90 205,90L495,90C497.76,90 500,92.24 500,95Z" style="fill:#2c4144;stroke:#00c8d8;stroke-width:2px;"/>
            <g>
                <text x="321.531px" y="119.497px" style="font-family:'Menlo-Bold', 'Menlo', monospace;font-weight:700;font-size:16px;fill:#00c8d8;">RFC.md</text>
                <text x="283.936px" y="138.71px" style="font-family:'Menlo-Regular', 'Menlo', monospace;font-size:11px;fill:#bafffd;">Request for Comments</text>
                <g>
                    <text x="241.917px" y="160.579px" style="font-family:'Menlo-Regular', 'Menlo', monospace;font-size:10px;fill:#8cc9d9;">research, rationale, open questions,</text>
                    <text x="302.122px" y="170.579px" style="font-family:'Menlo-Regular', 'Menlo', monospace;font-size:10px;fill:#8cc9d9;">ready for review</text>
                </g>
            </g>
        </g>
    </g>
    <g>
        <path d="M850,635L850,725C850,727.76 847.76,730 845,730L555,730C552.24,730 550,727.76 550,725L550,635C550,632.24 552.24,630 555,630L845,630C847.76,630 850,632.24 850,635Z" style="fill:#1b2a31;stroke:#fc704c;stroke-width:2px;"/>
    </g>
    <g>
        <g>
            <g transform="matrix(18.662293,0,0,18.662293,750.82012,686.79333)">
            </g>
            <text x="649.699px" y="686.793px" style="font-family:'Menlo-Bold', 'Menlo', monospace;font-weight:700;font-size:18.662px;fill:#fc704c;">ARCHITECT</text>
            <g transform="matrix(12,0,0,12,711.162109,663.779297)">
            </g>
            <text x="689.488px" y="663.779px" style="font-family:'Menlo-Regular', 'Menlo', monospace;font-size:12px;fill:#feffd2;">YOU</text>
            <text x="624.018px" y="704.408px" style="font-family:'Menlo-Regular', 'Menlo', monospace;font-size:11px;fill:#c5f0e9;">Test • Decide • Approve</text>
        </g>
    </g>
    <g>
        <path d="M260,390L260,430L140,430L140,480" style="fill:none;stroke:#b3f9f5;stroke-width:1px;"/>
        <path d="M310,390L310,410L280,410L280,480" style="fill:none;stroke:#b3f9f5;stroke-width:1px;"/>
        <path d="M410,390L410,410L420,410L420,480" style="fill:none;stroke:#b3f9f5;stroke-width:1px;"/>
        <path d="M460,390L460,430L560,430L560,480" style="fill:none;stroke:#b3f9f5;stroke-width:1px;"/>
        <path d="M950,390L950,430L840,430L840,480" style="fill:none;stroke:#b3f9f5;stroke-width:1px;"/>
        <path d="M1000,390L1000,410L980,410L980,480" style="fill:none;stroke:#b3f9f5;stroke-width:1px;"/>
        <path d="M1100,390L1100,410L1120,410L1120,480" style="fill:none;stroke:#b3f9f5;stroke-width:1px;"/>
        <path d="M1150,390L1150,430L1260,430L1260,480" style="fill:none;stroke:#b3f9f5;stroke-width:1px;"/>
        <path d="M555,325L675,325L675,630" style="fill:none;stroke:#b3f9f5;stroke-width:2px;stroke-dasharray:5,5;"/>
        <path d="M700,190L700,630" style="fill:none;stroke:#b3f9f5;stroke-width:2.48px;stroke-dasharray:6.206,6.206;"/>
        <path d="M845,325L725,325L725,630" style="fill:none;stroke:#b3f9f5;stroke-width:2px;stroke-dasharray:5,5;"/>
        <path d="M850,883L1360,883L1360,325L1250,325" style="fill:none;stroke:#b3f9f5;stroke-width:2px;"/>
        <path d="M150,320L40,320L40,883L550,883" style="fill:none;stroke:#b3f9f5;stroke-width:2px;"/>
        <path d="M350,190L350,250" style="fill:none;stroke:#b3f9f5;stroke-width:2px;"/>
        <path d="M550,140L500,140" style="fill:none;stroke:#b3f9f5;stroke-width:2px;"/>
        <path d="M700,730L700,830" style="fill:none;stroke:#b3f9f5;stroke-width:2px;"/>
    </g>
    <g>
        <text x="323.445px" y="434.39px" style="font-family:'Menlo-Regular', 'Menlo', monospace;font-size:11px;fill:#699daa;">delegate</text>
        <text x="1023.445px" y="434.39px" style="font-family:'Menlo-Regular', 'Menlo', monospace;font-size:11px;fill:#699daa;">delegate</text>
        <text x="326.982px" y="872.844px" style="font-family:'Menlo-Regular', 'Menlo', monospace;font-size:11px;fill:#699daa;">results</text>
        <text x="1026.982px" y="872.688px" style="font-family:'Menlo-Regular', 'Menlo', monospace;font-size:11px;fill:#699daa;">results</text>
    </g>
    <g>
        <g>
            <text x="242.527px" y="980px" style="font-family:'Menlo-Regular', 'Menlo', monospace;font-size:10px;fill:#519299;">Legend:</text>
            <rect x="312.527" y="970" width="15" height="10" style="fill:#0d141c;stroke:#fcba03;stroke-width:1.5px;"/>
            <text x="332.527px" y="980px" style="font-family:'Menlo-Regular', 'Menlo', monospace;font-size:10px;fill:#fcba03;">Upstream Agent</text>
            <rect x="492.527" y="970" width="15" height="10" style="fill:#0d141c;stroke:#b3f9f5;stroke-width:1.5px;"/>
            <text x="512.527px" y="980px" style="font-family:'Menlo-Regular', 'Menlo', monospace;font-size:10px;fill:#8cc9d9;">PRIMARY Agent</text>
            <rect x="632.527" y="970" width="15" height="10" style="fill:#112130;stroke:#67dfef;stroke-width:1.5px;"/>
            <text x="652.527px" y="980px" style="font-family:'Menlo-Regular', 'Menlo', monospace;font-size:10px;fill:#8cc9d9;">Secondary Agent (Subagent)</text>
            <rect x="872.527" y="970" width="15" height="10" style="fill:#1b2a31;stroke:#fc704c;stroke-width:2px;"/>
            <text x="892.527px" y="980px" style="font-family:'Menlo-Regular', 'Menlo', monospace;font-size:10px;fill:#feffd2;">ARCHITECT</text>
            <rect x="1052.527" y="970" width="15" height="10" style="fill:#2c4144;stroke:#00c8d8;stroke-width:2px;"/>
            <text x="1072.527px" y="980px" style="font-family:'Menlo-Regular', 'Menlo', monospace;font-size:10px;fill:#bafffd;">Context Memory</text>
        </g>
    </g>
</svg>
