<?xml version="1.0" encoding="UTF-8" standalone="no"?>
<!DOCTYPE svg PUBLIC "-//W3C//DTD SVG 1.1//EN" "http://www.w3.org/Graphics/SVG/1.1/DTD/svg11.dtd">
<svg width="128px" height="128px" version="1.1" xmlns="http://www.w3.org/2000/svg" xmlns:xlink="http://www.w3.org/1999/xlink" xml:space="preserve" xmlns:serif="http://www.serif.com/" style="fill-rule:evenodd;clip-rule:evenodd;stroke-linejoin:round;stroke-miterlimit:2;">
    <path d="M79.05,78.15L65.88,75.83C65.88,75.83 65.31,76.29 63.73,78.21C62.15,80.13 60.57,83.67 60.57,83.67L29.05,77.37C29.05,77.37 14.84,86.56 18.43,105.14C21.63,121.67 35.98,125.32 43.87,125.48C60.55,125.82 68.23,113.36 68.23,113.36C68.23,113.36 84.47,125.52 100.12,115.05C116.12,104.35 110.3,83.42 106.58,80.6C103.33,78.15 79.05,78.15 79.05,78.15Z" style="fill:rgb(175,12,26);fill-rule:nonzero;"/>
    <path d="M44.45,73.13C30.48,73.02 22.97,80.35 22.37,89.69C21.81,98.37 27.67,110.76 43.33,111.77C58.99,112.78 69.13,101.07 67.67,91.38C66.36,82.78 58.76,73.24 44.45,73.13Z" style="fill:rgb(220,13,39);fill-rule:nonzero;"/>
    <path d="M78.59,99.27C78.59,99.27 76.9,92.17 73.63,86.43C70.36,80.68 65.86,75.84 65.86,75.84C65.86,75.84 75.02,66.68 88.65,68.71C102.28,70.74 108.45,83.28 108.45,83.28C108.45,83.28 107.12,94.71 98.53,99.28C86.48,105.69 78.59,99.27 78.59,99.27Z" style="fill:rgb(220,13,39);fill-rule:nonzero;"/>
    <path d="M71.61,75.61C70.19,76.93 71.64,81.82 76.03,84.75C80.42,87.68 84.9,88.45 86.71,85.3C88.51,82.15 86.15,79.86 83.33,78.76C81.49,78.04 79.8,78.21 77.66,76.52C75.52,74.83 73.2,74.12 71.61,75.61Z" style="fill:rgb(255,96,95);fill-rule:nonzero;"/>
    <path d="M89.32,79.09C88.54,80.97 91.29,83.12 93.35,82.09C95.41,81.06 95.41,78.49 92.75,77.72C90.47,77.06 89.74,78.07 89.32,79.09Z" style="fill:rgb(255,96,95);fill-rule:nonzero;"/>
    <path d="M41.4,95.89C42.62,99.03 47.06,97.18 49.54,95.72C52.03,94.26 52.88,92.29 52.11,90.41C51.34,88.53 47.91,88.18 45,89.64C42.64,90.82 40.2,92.81 41.4,95.89Z" style="fill:rgb(255,96,95);fill-rule:nonzero;"/>
    <path d="M30.77,78.24C26.9,80.53 26.66,84.78 27.26,86.13C28.8,89.64 30.6,89.39 31.72,91.19C32.83,92.99 34.54,96.52 36.95,96.16C40.38,95.65 40.12,91.19 39.01,88.36C38.18,86.25 37.21,84.16 37.04,81.5C36.86,78.84 36.86,74.64 30.77,78.24Z" style="fill:rgb(255,96,95);fill-rule:nonzero;"/>
    <path d="M15.17,19.6C13.88,22.95 16.2,25.39 18.68,26.63C21.39,27.98 24.35,27.98 24.35,27.98C24.35,27.98 32.86,38.11 36.78,50.54C40.44,62.14 41.74,75.78 41.51,78.1C41.24,80.8 41.1,83.37 41.78,84.32C43.12,86.2 46.51,85.81 47.18,84.46C48.13,82.57 47.04,78.24 47.04,78.24C47.04,78.24 46.63,62.57 42.72,50.14C38.81,37.71 33.8,30.55 33.8,30.55C33.8,30.55 50.77,35.17 61.77,45.28C78.4,60.54 80.16,69.56 80.16,69.56C80.16,69.56 80.25,74.05 81.33,75.4C82.41,76.75 87.35,75.94 87.49,73.91C87.63,71.88 86.22,68.18 86.22,68.18C86.22,68.18 82.06,53.35 64.23,39.87C48.19,27.75 28.55,23.11 28.55,23.11C28.55,23.11 26.54,20.08 23.28,18.38C20.43,16.9 16.38,16.45 15.17,19.6Z" style="fill:rgb(117,153,55);fill-rule:nonzero;"/>
    <path d="M26.81,23.32C26.27,22.1 28.28,15.5 38.28,10.23C48.28,4.96 59.67,3.35 74.37,3.59C90.88,3.86 98.55,6.39 98.86,7.38C99.18,8.4 91.19,13.9 91.19,13.9L64.77,21.7L39.77,24.94L26.81,23.32Z" style="fill:rgb(54,105,24);fill-rule:nonzero;"/>
    <path d="M66.65,28.92C87.66,24.93 98.78,8.82 98.78,7.83C98.78,7.71 97.45,7.97 95.7,8.38C93.94,8.79 78.53,13.14 70.7,15.27C61.78,17.7 50.15,19.85 46.11,20.4C40.16,21.21 27.06,23.37 27.06,23.37C27.06,23.37 42.96,33.42 66.65,28.92Z" style="fill:rgb(81,142,48);fill-rule:nonzero;"/>
</svg>
